<svg
    aria-hidden="true"
    focusable="false"
    class="me-3 h-10 w-6 sm:absolute sm:-start-18 sm:me-0 sm:h-20 sm:w-12"
    viewBox="0 0 80 70"
    xmlns="http://www.w3.org/2000/svg"
  >
    <title>Logo — Blocky Orange</title>

    <!-- Leaf -->
    <rect x="30" y="0" width="10" height="10" fill="#53C68C" />
    <rect x="40" y="0" width="10" height="10" fill="#69D68F" />

    <!-- Top row of fruit -->
    <rect x="20" y="10" width="10" height="10" fill="#FFB733" />
    <rect x="30" y="10" width="10" height="10" fill="#FFB733" />
    <rect x="40" y="10" width="10" height="10" fill="#FF8C00" />
    <rect x="50" y="10" width="10" height="10" fill="#FF8C00" />

    <!-- Wider middle rows -->
    <rect x="10" y="20" width="10" height="10" fill="#FFB733" />
    <rect x="20" y="20" width="10" height="10" fill="#FFB733" />
    <rect x="30" y="20" width="10" height="10" fill="#FFB733" />
    <rect x="40" y="20" width="10" height="10" fill="#FF8C00" />
    <rect x="50" y="20" width="10" height="10" fill="#FF8C00" />
    <rect x="60" y="20" width="10" height="10" fill="#FF8C00" />

    <rect x="10" y="30" width="10" height="10" fill="#FFB733" />
    <rect x="20" y="30" width="10" height="10" fill="#FFB733" />
    <rect x="30" y="30" width="10" height="10" fill="#FFB733" />
    <rect x="40" y="30" width="10" height="10" fill="#FF8C00" />
    <rect x="50" y="30" width="10" height="10" fill="#FF8C00" />
    <rect x="60" y="30" width="10" height="10" fill="#FF8C00" />

    <rect x="10" y="40" width="10" height="10" fill="#FFB733" />
    <rect x="20" y="40" width="10" height="10" fill="#FFB733" />
    <rect x="30" y="40" width="10" height="10" fill="#FFB733" />
    <rect x="40" y="40" width="10" height="10" fill="#FF8C00" />
    <rect x="50" y="40" width="10" height="10" fill="#FF8C00" />
    <rect x="60" y="40" width="10" height="10" fill="#FF8C00" />

    <!-- Bottom row of fruit -->
    <rect x="20" y="50" width="10" height="10" fill="#FFB733" />
    <rect x="30" y="50" width="10" height="10" fill="#FFB733" />
    <rect x="40" y="50" width="10" height="10" fill="#FF8C00" />
    <rect x="50" y="50" width="10" height="10" fill="#FF8C00" />
  </svg>
